<svg xmlns="http://www.w3.org/2000/svg" xmlns:xlink="http://www.w3.org/1999/xlink" preserveAspectRatio="xMidYMid" width="27" height="16" viewBox="0 0 27 16">
  <defs>
    <style>

      .cls-2 {
        fill: #000000;
        filter: url(#color-overlay-1);
      }
    </style>

    <filter id="color-overlay-1" filterUnits="userSpaceOnUse">
      <feFlood flood-color="#4da7ff" flood-opacity="1"/>
      <feComposite operator="in" in2="SourceGraphic"/>
      <feBlend mode="normal" in2="SourceGraphic" result="colorOverlay"/>
    </filter>
  </defs>
  <path d="M24.389,2.264 C24.389,2.264 17.622,2.264 17.622,2.264 C17.622,2.264 17.622,0.663 17.622,0.663 C17.622,0.663 24.390,0.663 24.390,0.663 C24.390,0.663 24.390,2.264 24.390,2.264 C24.390,2.264 24.389,2.264 24.389,2.264 ZM13.117,8.826 C13.554,9.471 13.772,10.252 13.772,11.171 C13.772,12.119 13.526,12.971 13.026,13.723 C12.707,14.221 12.312,14.641 11.837,14.980 C11.302,15.372 10.669,15.640 9.941,15.783 C9.210,15.927 8.419,16.000 7.568,16.000 C7.568,16.000 -0.000,16.000 -0.000,16.000 C-0.000,16.000 -0.000,-0.001 -0.000,-0.001 C-0.000,-0.001 8.115,-0.001 8.115,-0.001 C10.161,0.031 11.611,0.596 12.468,1.704 C12.982,2.384 13.236,3.199 13.236,4.147 C13.236,5.125 12.979,5.908 12.460,6.503 C12.171,6.836 11.745,7.139 11.180,7.413 C12.035,7.711 12.684,8.180 13.117,8.826 ZM3.875,6.307 C3.875,6.307 7.431,6.307 7.431,6.307 C8.162,6.307 8.753,6.175 9.208,5.911 C9.663,5.647 9.889,5.178 9.889,4.504 C9.889,3.760 9.589,3.266 8.987,3.028 C8.469,2.863 7.807,2.778 7.003,2.778 C7.003,2.778 3.875,2.778 3.875,2.778 C3.875,2.778 3.875,6.307 3.875,6.307 ZM10.232,10.942 C10.232,10.111 9.875,9.536 9.163,9.228 C8.765,9.053 8.203,8.963 7.482,8.956 C7.482,8.956 3.875,8.956 3.875,8.956 C3.875,8.956 3.875,13.221 3.875,13.221 C3.875,13.221 7.427,13.221 7.427,13.221 C8.156,13.221 8.721,13.130 9.128,12.940 C9.863,12.591 10.232,11.928 10.232,10.942 ZM26.900,8.339 C26.982,8.862 27.019,9.622 27.004,10.614 C27.004,10.614 18.240,10.614 18.240,10.614 C18.288,11.766 18.706,12.572 19.498,13.033 C19.976,13.322 20.555,13.463 21.233,13.463 C21.948,13.463 22.531,13.291 22.979,12.937 C23.224,12.749 23.439,12.485 23.626,12.150 C23.626,12.150 26.838,12.150 26.838,12.150 C26.754,12.831 26.367,13.521 25.672,14.222 C24.595,15.336 23.085,15.895 21.145,15.895 C19.543,15.895 18.131,15.424 16.905,14.485 C15.683,13.543 15.069,12.014 15.069,9.894 C15.069,7.905 15.620,6.384 16.726,5.325 C17.835,4.263 19.267,3.735 21.032,3.735 C22.078,3.735 23.021,3.913 23.863,4.271 C24.701,4.630 25.394,5.193 25.940,5.968 C26.434,6.650 26.752,7.440 26.900,8.339 ZM23.738,8.638 C23.679,7.841 23.400,7.238 22.897,6.826 C22.399,6.413 21.776,6.206 21.032,6.206 C20.223,6.206 19.598,6.428 19.154,6.863 C18.707,7.298 18.429,7.889 18.315,8.638 C18.315,8.638 23.738,8.638 23.738,8.638 C23.738,8.638 23.738,8.638 23.738,8.638 Z" id="path-1" class="cls-2" fill-rule="evenodd"/>
</svg>
