<svg xmlns="http://www.w3.org/2000/svg" xmlns:xlink="http://www.w3.org/1999/xlink" preserveAspectRatio="xMidYMid" width="20" height="20" viewBox="0 0 20 20">
  <defs>
    <style>

      .cls-2 {
        fill: #000000;
        filter: url(#color-overlay-1);
      }
    </style>

    <filter id="color-overlay-1" filterUnits="userSpaceOnUse">
      <feFlood flood-color="#4da7ff" flood-opacity="1"/>
      <feComposite operator="in" in2="SourceGraphic"/>
      <feBlend mode="normal" in2="SourceGraphic" result="colorOverlay"/>
    </filter>
  </defs>
  <path d="M17.438,3.324 C17.438,3.324 17.298,3.171 17.298,3.171 C15.472,1.221 12.876,-0.000 10.000,-0.000 C8.856,-0.000 7.756,0.193 6.731,0.549 C6.731,0.549 6.627,0.585 6.627,0.585 C3.279,1.788 0.753,4.729 0.143,8.315 C0.142,8.318 0.141,8.322 0.140,8.325 C0.138,8.336 0.137,8.348 0.135,8.359 C0.047,8.893 -0.000,9.441 -0.000,9.999 C-0.000,12.384 0.839,14.575 2.237,16.295 C2.237,16.296 2.353,16.436 2.353,16.436 C4.189,18.613 6.935,20.000 10.000,20.000 C11.158,20.000 12.270,19.801 13.306,19.437 C13.333,19.429 13.360,19.419 13.386,19.409 C16.671,18.224 19.162,15.364 19.825,11.865 C19.826,11.857 19.828,11.849 19.830,11.840 C19.941,11.244 20.000,10.628 20.000,9.999 C20.000,7.436 19.030,5.095 17.438,3.324 ZM10.000,1.999 C12.057,1.999 13.934,2.780 15.353,4.060 C14.360,5.421 12.970,6.316 11.449,6.893 C11.195,6.301 10.942,5.764 10.699,5.286 C9.995,3.899 9.304,2.836 8.765,2.095 C9.168,2.032 9.580,1.999 10.000,1.999 ZM6.716,2.705 C7.312,3.451 8.444,5.034 9.512,7.457 C6.707,8.059 3.830,7.859 2.342,7.683 C3.015,5.464 4.628,3.649 6.716,2.705 ZM2.000,9.999 C2.000,9.886 2.003,9.773 2.008,9.660 C2.805,9.760 3.986,9.868 5.364,9.868 C6.031,9.868 6.745,9.843 7.482,9.779 C8.465,9.694 9.391,9.546 10.260,9.340 C10.451,9.878 10.634,10.446 10.806,11.045 C9.905,11.306 8.975,11.634 8.015,12.027 C5.947,12.875 4.260,13.824 3.319,14.394 C2.486,13.132 2.000,11.622 2.000,9.999 ZM10.000,18.000 C7.942,18.000 6.063,17.218 4.644,15.937 C5.978,15.152 8.483,13.816 11.296,12.989 C11.609,14.432 11.847,16.021 11.967,17.755 C11.337,17.915 10.678,18.000 10.000,18.000 ZM13.912,16.976 C13.771,15.363 13.534,13.877 13.237,12.520 C14.709,12.245 16.210,12.164 17.628,12.413 C17.010,14.361 15.664,15.989 13.912,16.976 ZM17.987,10.444 C16.400,10.162 14.649,10.205 12.748,10.572 C12.566,9.930 12.372,9.325 12.172,8.755 C14.049,8.037 15.568,6.980 16.683,5.608 C17.515,6.869 18.000,8.379 18.000,9.999 C18.000,10.149 17.995,10.297 17.987,10.444 Z" id="path-1" class="cls-2" fill-rule="evenodd"/>
</svg>
