<svg xmlns="http://www.w3.org/2000/svg" xmlns:xlink="http://www.w3.org/1999/xlink" preserveAspectRatio="xMidYMid" width="11" height="20" viewBox="0 0 11 20">
  <defs>
    <style>

      .cls-2 {
        fill: #000000;
        filter: url(#color-overlay-1);
      }
    </style>

    <filter id="color-overlay-1" filterUnits="userSpaceOnUse">
      <feFlood flood-color="#4da7ff" flood-opacity="1"/>
      <feComposite operator="in" in2="SourceGraphic"/>
      <feBlend mode="normal" in2="SourceGraphic" result="colorOverlay"/>
    </filter>
  </defs>
  <path d="M10.585,0.001 C10.585,0.001 7.947,-0.005 7.947,-0.005 C4.983,-0.005 3.067,1.928 3.067,4.918 C3.067,4.918 3.067,7.188 3.067,7.188 C3.067,7.188 0.415,7.188 0.415,7.188 C0.186,7.188 -0.000,7.372 -0.000,7.596 C-0.000,7.596 -0.000,10.884 -0.000,10.884 C-0.000,11.109 0.186,11.291 0.415,11.291 C0.415,11.291 3.067,11.291 3.067,11.291 C3.067,11.291 3.067,19.589 3.067,19.589 C3.067,19.814 3.253,19.996 3.482,19.996 C3.482,19.996 6.943,19.996 6.943,19.996 C7.172,19.996 7.358,19.814 7.358,19.589 C7.358,19.589 7.358,11.291 7.358,11.291 C7.358,11.291 10.460,11.291 10.460,11.291 C10.689,11.291 10.875,11.109 10.875,10.884 C10.875,10.884 10.876,7.596 10.876,7.596 C10.876,7.488 10.832,7.384 10.754,7.308 C10.676,7.231 10.571,7.188 10.461,7.188 C10.461,7.188 7.358,7.188 7.358,7.188 C7.358,7.188 7.358,5.264 7.358,5.264 C7.358,4.339 7.583,3.870 8.807,3.870 C8.807,3.870 10.585,3.869 10.585,3.869 C10.814,3.869 10.999,3.688 10.999,3.461 C10.999,3.461 10.999,0.408 10.999,0.408 C10.999,0.183 10.814,0.001 10.585,0.001 Z" id="path-1" class="cls-2" fill-rule="evenodd"/>
</svg>
