<svg xmlns="http://www.w3.org/2000/svg" xmlns:xlink="http://www.w3.org/1999/xlink" preserveAspectRatio="xMidYMid" width="31" height="20" viewBox="0 0 31 20">
  <defs>
    <style>

      .cls-2 {
        fill: #4e4e4e;
        filter: url(#color-overlay-1);
      }
    </style>

    <filter id="color-overlay-1" filterUnits="userSpaceOnUse">
      <feFlood flood-color="#4da7ff" flood-opacity="1"/>
      <feComposite operator="in" in2="SourceGraphic"/>
      <feBlend mode="normal" in2="SourceGraphic" result="colorOverlay"/>
    </filter>
  </defs>
  <path d="M9.934,8.574 C13.047,8.574 16.161,8.574 19.274,8.574 C19.348,13.377 18.177,16.613 15.223,18.493 C9.821,21.929 3.686,18.941 1.281,14.791 C-2.228,8.735 2.082,2.336 6.638,0.540 C9.993,-0.783 14.754,0.497 16.390,2.496 C16.390,2.542 16.390,2.589 16.390,2.635 C15.589,3.451 14.788,4.265 13.986,5.080 C12.889,4.619 11.966,4.004 10.552,3.753 C6.305,3.000 2.817,7.617 4.097,11.857 C5.737,17.293 14.621,17.999 15.497,11.996 C13.643,11.973 11.789,11.950 9.934,11.926 C9.934,10.809 9.934,9.691 9.934,8.574 ZM25.318,5.710 C26.257,5.710 27.195,5.710 28.134,5.710 C28.134,6.664 28.134,7.619 28.134,8.574 C29.072,8.574 30.011,8.574 30.950,8.574 C30.950,9.505 30.950,10.436 30.950,11.368 C30.011,11.391 29.072,11.414 28.134,11.437 C28.134,12.369 28.134,13.301 28.134,14.232 C27.195,14.232 26.257,14.232 25.318,14.232 C25.318,13.301 25.318,12.369 25.318,11.437 C24.380,11.414 23.441,11.391 22.502,11.368 C22.502,10.436 22.502,9.505 22.502,8.574 C23.441,8.574 24.380,8.574 25.318,8.574 C25.318,7.619 25.318,6.664 25.318,5.710 Z" id="path-1" class="cls-2" fill-rule="evenodd"/>
</svg>
