<svg xmlns="http://www.w3.org/2000/svg" xmlns:xlink="http://www.w3.org/1999/xlink" preserveAspectRatio="xMidYMid" width="60" height="60" viewBox="0 0 60 60">
  <defs>
    <style>

      .cls-2 {
        fill: #000000;
        filter: url(#color-overlay-1);
      }
    </style>

    <filter id="color-overlay-1" filterUnits="userSpaceOnUse">
      <feFlood flood-color="#ffff00" flood-opacity="1"/>
      <feComposite operator="in" in2="SourceGraphic"/>
      <feBlend mode="normal" in2="SourceGraphic" result="colorOverlay"/>
    </filter>
  </defs>
  <path d="M50.589,42.424 C50.589,42.424 43.291,40.677 43.291,40.677 C43.291,40.677 35.157,32.535 35.157,32.535 C35.157,32.535 41.424,26.270 41.424,26.270 C42.880,26.781 44.393,27.031 45.899,27.031 C49.422,27.031 52.902,25.663 55.490,23.076 C59.497,19.073 60.583,12.935 58.193,7.802 C58.193,7.802 57.084,5.423 57.084,5.423 C57.084,5.423 50.487,12.011 50.487,12.011 C50.487,12.011 47.424,8.949 47.424,8.949 C47.424,8.949 54.023,2.360 54.023,2.360 C54.023,2.360 51.635,1.250 51.635,1.250 C46.501,-1.138 40.361,-0.053 36.356,3.949 C32.662,7.640 31.450,13.146 33.157,18.004 C33.157,18.004 30.691,20.469 30.691,20.469 C30.691,20.469 12.520,2.283 12.520,2.283 C11.163,0.920 9.356,0.167 7.431,0.165 C7.428,0.165 7.426,0.165 7.423,0.165 C5.499,0.165 3.690,0.914 2.329,2.276 C0.966,3.640 0.216,5.453 0.217,7.380 C0.218,9.307 0.968,11.117 2.330,12.480 C2.330,12.480 20.495,30.662 20.495,30.662 C20.495,30.662 18.024,33.132 18.024,33.132 C13.163,31.424 7.653,32.634 3.958,36.325 C-0.049,40.329 -1.135,46.467 1.256,51.599 C1.256,51.599 2.364,53.979 2.364,53.979 C2.364,53.979 8.961,47.391 8.961,47.391 C8.961,47.391 12.024,50.452 12.024,50.452 C12.024,50.452 5.425,57.042 5.425,57.042 C5.425,57.042 7.814,58.152 7.814,58.152 C9.630,58.997 11.572,59.407 13.501,59.407 C17.024,59.407 20.504,58.039 23.093,55.453 C26.787,51.762 27.998,46.255 26.292,41.397 C26.292,41.397 32.554,35.137 32.554,35.137 C32.554,35.137 40.691,43.281 40.691,43.281 C40.691,43.281 42.435,50.585 42.435,50.585 C42.435,50.585 51.839,59.999 51.839,59.999 C51.839,59.999 59.993,51.837 59.993,51.837 C59.993,51.837 50.589,42.424 50.589,42.424 ZM36.986,17.666 C35.248,13.933 36.039,9.468 38.954,6.555 C41.195,4.315 44.353,3.330 47.392,3.780 C47.392,3.780 42.217,8.949 42.217,8.949 C42.217,8.949 50.487,17.211 50.487,17.211 C50.487,17.211 55.665,12.040 55.665,12.040 C56.119,15.075 55.133,18.232 52.892,20.470 C49.974,23.386 45.501,24.176 41.761,22.437 C41.761,22.437 40.595,21.894 40.595,21.894 C40.595,21.894 36.353,26.136 36.353,26.136 C36.353,26.136 33.292,23.072 33.292,23.072 C33.292,23.072 37.531,18.834 37.531,18.834 C37.531,18.834 36.986,17.666 36.986,17.666 ZM3.895,7.378 C3.895,6.435 4.262,5.547 4.928,4.880 C5.595,4.213 6.480,3.847 7.423,3.847 C8.368,3.848 9.252,4.216 9.917,4.883 C9.917,4.883 33.751,28.737 33.751,28.737 C33.751,28.737 28.759,33.727 28.759,33.727 C28.759,33.727 4.930,9.876 4.930,9.876 C4.263,9.208 3.896,8.321 3.895,7.378 ZM20.494,52.846 C18.253,55.087 15.095,56.072 12.056,55.621 C12.056,55.621 17.231,50.453 17.231,50.453 C17.231,50.453 8.962,42.190 8.962,42.190 C8.962,42.190 3.783,47.362 3.783,47.362 C3.330,44.326 4.315,41.170 6.557,38.931 C9.475,36.015 13.948,35.224 17.688,36.965 C17.688,36.965 18.853,37.507 18.853,37.507 C18.853,37.507 23.096,33.266 23.096,33.266 C23.096,33.266 26.157,36.329 26.157,36.329 C26.157,36.329 21.918,40.567 21.918,40.567 C21.918,40.567 22.462,41.736 22.462,41.736 C24.201,45.469 23.410,49.934 20.494,52.846 ZM45.771,48.718 C45.771,48.718 44.844,44.834 44.844,44.834 C44.844,44.834 48.723,45.762 48.723,45.762 C48.723,45.762 54.792,51.837 54.792,51.837 C54.792,51.837 51.839,54.792 51.839,54.792 C51.839,54.792 45.771,48.718 45.771,48.718 Z" id="path-1" class="cls-2" fill-rule="evenodd"/>
</svg>
