<svg xmlns="http://www.w3.org/2000/svg" xmlns:xlink="http://www.w3.org/1999/xlink" preserveAspectRatio="xMidYMid" width="60" height="60" viewBox="0 0 60 60">
  <defs>
    <style>

      .cls-2 {
        fill: #000000;
        filter: url(#color-overlay-1);
      }
    </style>

    <filter id="color-overlay-1" filterUnits="userSpaceOnUse">
      <feFlood flood-color="#ffff00" flood-opacity="1"/>
      <feComposite operator="in" in2="SourceGraphic"/>
      <feBlend mode="normal" in2="SourceGraphic" result="colorOverlay"/>
    </filter>
  </defs>
  <path d="M53.420,26.393 C53.420,26.393 47.398,32.413 47.398,32.413 C47.398,32.413 46.746,45.869 46.746,45.869 C46.746,45.869 35.482,57.132 35.482,57.132 C35.482,57.132 32.389,47.421 32.389,47.421 C32.389,47.421 28.798,51.012 28.798,51.012 C28.798,51.012 26.700,48.915 26.700,48.915 C26.700,48.915 19.576,53.562 19.576,53.562 C19.576,53.562 6.437,40.424 6.437,40.424 C6.437,40.424 11.085,33.300 11.085,33.300 C11.085,33.300 8.987,31.203 8.987,31.203 C8.987,31.203 12.578,27.613 12.578,27.613 C12.578,27.613 2.867,24.519 2.867,24.519 C2.867,24.519 14.130,13.257 14.130,13.257 C14.130,13.257 27.588,12.604 27.588,12.604 C27.588,12.604 33.609,6.583 33.609,6.583 C37.856,2.337 43.503,-0.002 49.509,-0.002 C52.242,-0.002 54.919,0.486 57.466,1.449 C57.466,1.449 58.257,1.746 58.257,1.746 C58.257,1.746 58.556,2.539 58.556,2.539 C61.674,10.792 59.657,20.155 53.420,26.393 ZM37.184,50.134 C37.184,50.134 43.075,44.243 43.075,44.243 C43.075,44.243 43.457,36.354 43.457,36.354 C43.457,36.354 35.370,44.440 35.370,44.440 C35.370,44.440 37.184,50.134 37.184,50.134 ZM11.235,39.924 C11.235,39.924 20.075,48.764 20.075,48.764 C20.075,48.764 23.993,46.208 23.993,46.208 C23.993,46.208 13.791,36.007 13.791,36.007 C13.791,36.007 11.235,39.924 11.235,39.924 ZM15.756,16.928 C15.756,16.928 9.865,22.818 9.865,22.818 C9.865,22.818 15.559,24.632 15.559,24.632 C15.559,24.632 23.647,16.545 23.647,16.545 C23.647,16.545 15.756,16.928 15.756,16.928 ZM55.336,4.668 C53.457,4.055 51.501,3.744 49.509,3.744 C44.503,3.744 39.797,5.692 36.258,9.231 C36.258,9.231 14.284,31.203 14.284,31.203 C14.284,31.203 28.798,45.716 28.798,45.716 C28.798,45.716 50.771,23.744 50.771,23.744 C55.768,18.747 57.515,11.344 55.336,4.668 ZM45.564,20.057 C44.063,20.057 42.652,19.472 41.591,18.411 C39.400,16.221 39.400,12.656 41.591,10.467 C42.652,9.405 44.063,8.821 45.564,8.821 C47.065,8.821 48.475,9.405 49.536,10.467 C51.727,12.656 51.727,16.221 49.536,18.411 C48.475,19.472 47.064,20.057 45.564,20.057 ZM46.888,13.115 C46.534,12.762 46.064,12.566 45.564,12.566 C45.064,12.566 44.593,12.762 44.240,13.115 C43.510,13.845 43.510,15.033 44.240,15.763 C44.593,16.116 45.064,16.312 45.564,16.312 C46.064,16.312 46.534,16.116 46.888,15.763 C47.618,15.033 47.618,13.845 46.888,13.115 ZM6.893,45.294 C6.893,45.294 2.648,49.538 2.648,49.538 C2.648,49.538 -0.000,46.890 -0.000,46.890 C-0.000,46.890 4.245,42.646 4.245,42.646 C4.245,42.646 6.893,45.294 6.893,45.294 ZM12.030,50.430 C12.030,50.430 5.772,56.688 5.772,56.688 C5.772,56.688 3.123,54.040 3.123,54.040 C3.123,54.040 9.381,47.782 9.381,47.782 C9.381,47.782 12.030,50.430 12.030,50.430 ZM17.353,55.754 C17.353,55.754 13.108,59.999 13.108,59.999 C13.108,59.999 10.460,57.350 10.460,57.350 C10.460,57.350 14.705,53.105 14.705,53.105 C14.705,53.105 17.353,55.754 17.353,55.754 Z" id="path-1" class="cls-2" fill-rule="evenodd"/>
</svg>
