<svg xmlns="http://www.w3.org/2000/svg" xmlns:xlink="http://www.w3.org/1999/xlink" preserveAspectRatio="xMidYMid" width="60" height="58" viewBox="0 0 60 58">
  <defs>
    <style>

      .cls-2 {
        fill: #000000;
        filter: url(#color-overlay-1);
      }
    </style>

    <filter id="color-overlay-1" filterUnits="userSpaceOnUse">
      <feFlood flood-color="#ffff00" flood-opacity="1"/>
      <feComposite operator="in" in2="SourceGraphic"/>
      <feBlend mode="normal" in2="SourceGraphic" result="colorOverlay"/>
    </filter>
  </defs>
  <path d="M59.343,33.546 C58.021,28.535 54.859,24.346 50.437,21.752 C49.984,21.486 49.520,21.242 49.049,21.015 C49.091,20.490 49.114,19.958 49.114,19.421 C49.114,8.712 40.539,-0.001 30.000,-0.001 C19.460,-0.001 10.886,8.712 10.886,19.421 C10.886,19.958 10.909,20.489 10.951,21.015 C10.480,21.242 10.016,21.486 9.562,21.752 C5.141,24.346 1.978,28.535 0.657,33.546 C-0.665,38.557 0.013,43.791 2.566,48.284 C5.971,54.276 12.320,57.998 19.135,57.998 C22.472,57.998 25.771,57.097 28.676,55.394 C29.133,55.126 29.574,54.841 30.000,54.541 C30.426,54.841 30.867,55.126 31.324,55.394 C34.229,57.097 37.528,57.998 40.864,57.998 C47.680,57.998 54.029,54.276 57.433,48.284 C59.986,43.791 60.664,38.557 59.343,33.546 ZM14.597,19.421 C14.597,10.791 21.507,3.769 30.000,3.769 C38.493,3.769 45.403,10.791 45.403,19.421 C45.403,19.515 45.401,19.607 45.399,19.700 C43.928,19.336 42.417,19.146 40.897,19.146 C36.946,19.146 33.154,20.399 30.000,22.618 C26.845,20.399 23.053,19.146 19.103,19.146 C17.583,19.146 16.071,19.336 14.600,19.700 C14.599,19.607 14.597,19.515 14.597,19.421 ZM30.000,49.652 C27.014,46.623 25.418,42.491 25.484,38.296 C26.932,38.653 28.444,38.845 30.000,38.845 C31.555,38.845 33.067,38.653 34.516,38.296 C34.582,42.491 32.985,46.623 30.000,49.652 ZM30.000,35.074 C28.616,35.074 27.275,34.886 25.998,34.537 C26.339,33.239 26.849,31.964 27.541,30.746 C28.224,29.545 29.054,28.457 30.000,27.500 C30.946,28.457 31.776,29.545 32.458,30.746 C33.150,31.964 33.661,33.239 34.001,34.537 C32.725,34.886 31.384,35.074 30.000,35.074 ZM22.538,33.110 C18.928,31.070 16.206,27.599 15.117,23.456 C16.414,23.100 17.755,22.918 19.103,22.918 C21.947,22.918 24.690,23.723 27.055,25.169 C26.015,26.273 25.096,27.509 24.328,28.861 C23.550,30.229 22.957,31.656 22.538,33.110 ZM35.672,28.861 C34.904,27.509 33.984,26.274 32.945,25.169 C35.310,23.723 38.052,22.918 40.897,22.918 C42.245,22.918 43.586,23.100 44.883,23.457 C43.794,27.599 41.072,31.070 37.462,33.110 C37.043,31.656 36.450,30.229 35.672,28.861 ZM19.135,54.227 C13.641,54.227 8.523,51.228 5.780,46.399 C3.723,42.778 3.176,38.560 4.241,34.521 C5.306,30.484 7.855,27.107 11.418,25.018 C11.497,24.972 11.577,24.928 11.656,24.883 C13.200,30.229 16.951,34.626 21.833,36.980 C21.399,42.454 23.271,47.954 27.055,51.986 C26.977,52.033 26.900,52.081 26.821,52.128 C24.479,53.502 21.821,54.227 19.135,54.227 ZM54.220,46.399 C51.476,51.228 46.359,54.227 40.864,54.227 C38.178,54.227 35.521,53.502 33.179,52.128 C33.100,52.081 33.022,52.033 32.944,51.986 C36.729,47.954 38.601,42.454 38.166,36.980 C43.049,34.626 46.799,30.229 48.343,24.883 C48.423,24.928 48.503,24.972 48.582,25.018 C52.145,27.107 54.694,30.484 55.758,34.521 C56.823,38.560 56.277,42.778 54.220,46.399 Z" id="path-1" class="cls-2" fill-rule="evenodd"/>
</svg>
