<svg xmlns="http://www.w3.org/2000/svg" xmlns:xlink="http://www.w3.org/1999/xlink" preserveAspectRatio="xMidYMid" width="21" height="20" viewBox="0 0 21 20">
  <defs>
    <style>

      .cls-2 {
        fill: #000000;
        filter: url(#color-overlay-1);
      }
    </style>

    <filter id="color-overlay-1" filterUnits="userSpaceOnUse">
      <feFlood flood-color="#4da7ff" flood-opacity="1"/>
      <feComposite operator="in" in2="SourceGraphic"/>
      <feBlend mode="normal" in2="SourceGraphic" result="colorOverlay"/>
    </filter>
  </defs>
  <path d="M2.550,0.005 C3.204,0.005 3.717,0.226 4.089,0.665 C4.462,1.105 4.662,1.658 4.688,2.321 C4.688,2.977 4.479,3.531 4.058,3.979 C3.636,4.427 3.061,4.652 2.331,4.652 C2.331,4.652 2.306,4.652 2.306,4.652 C1.594,4.652 1.031,4.427 0.611,3.979 C0.197,3.531 -0.014,2.977 -0.014,2.321 C-0.014,1.648 0.214,1.094 0.676,0.659 C1.137,0.223 1.762,0.005 2.550,0.005 ZM0.262,6.492 C0.262,6.492 4.758,6.492 4.758,6.492 C4.758,6.492 4.758,19.985 4.758,19.985 C4.758,19.985 0.262,19.985 0.262,19.985 C0.262,19.985 0.262,6.492 0.262,6.492 ZM21.013,12.249 C21.013,12.249 21.013,19.985 21.013,19.985 C21.013,19.985 16.518,19.985 16.518,19.985 C16.518,19.985 16.518,12.769 16.518,12.769 C16.518,11.851 16.342,11.115 15.991,10.556 C15.641,10.000 15.057,9.724 14.231,9.724 C13.602,9.724 13.097,9.893 12.721,10.237 C12.344,10.577 12.070,10.952 11.905,11.367 C11.851,11.516 11.818,11.681 11.799,11.865 C11.782,12.045 11.774,12.240 11.774,12.447 C11.774,12.447 11.774,19.986 11.774,19.986 C11.774,19.986 7.251,19.986 7.251,19.986 C7.271,17.703 7.281,15.608 7.281,13.710 C7.281,13.710 7.281,11.310 7.281,11.310 C7.281,11.310 7.281,9.132 7.281,9.132 C7.281,8.467 7.275,7.901 7.264,7.432 C7.259,6.965 7.251,6.652 7.251,6.492 C7.251,6.492 11.774,6.492 11.774,6.492 C11.774,6.492 11.774,8.404 11.774,8.404 C11.774,8.404 11.750,8.459 11.750,8.459 C11.750,8.459 11.774,8.459 11.774,8.459 C11.774,8.459 11.774,8.404 11.774,8.404 C11.914,8.168 12.094,7.923 12.313,7.666 C12.534,7.408 12.799,7.168 13.122,6.949 C13.442,6.728 13.827,6.547 14.278,6.401 C14.731,6.257 15.248,6.185 15.837,6.185 C16.568,6.185 17.251,6.306 17.889,6.543 C18.525,6.782 19.071,7.156 19.535,7.667 C19.998,8.174 20.359,8.806 20.623,9.561 C20.884,10.314 21.013,11.210 21.013,12.249 Z" id="path-1" class="cls-2" fill-rule="evenodd"/>
</svg>
