<svg xmlns="http://www.w3.org/2000/svg" xmlns:xlink="http://www.w3.org/1999/xlink" preserveAspectRatio="xMidYMid" width="16" height="20" viewBox="0 0 16 20">
  <defs>
    <style>

      .cls-2 {
        fill: #000000;
        filter: url(#color-overlay-1);
      }
    </style>

    <filter id="color-overlay-1" filterUnits="userSpaceOnUse">
      <feFlood flood-color="#4da7ff" flood-opacity="1"/>
      <feComposite operator="in" in2="SourceGraphic"/>
      <feBlend mode="normal" in2="SourceGraphic" result="colorOverlay"/>
    </filter>
  </defs>
  <path d="M13.925,2.050 C12.524,0.728 10.584,-0.000 8.465,-0.000 C5.227,-0.000 3.235,1.304 2.135,2.398 C0.779,3.746 0.001,5.536 0.001,7.309 C0.001,9.535 0.949,11.244 2.536,11.879 C2.643,11.922 2.750,11.944 2.855,11.944 C3.190,11.944 3.455,11.728 3.547,11.383 C3.601,11.185 3.725,10.697 3.779,10.484 C3.894,10.066 3.801,9.864 3.549,9.572 C3.090,9.039 2.876,8.407 2.876,7.586 C2.876,5.147 4.725,2.555 8.151,2.555 C10.870,2.555 12.559,4.073 12.559,6.516 C12.559,8.058 12.221,9.487 11.607,10.538 C11.180,11.269 10.429,12.139 9.277,12.139 C8.779,12.139 8.332,11.938 8.050,11.588 C7.783,11.256 7.695,10.828 7.802,10.383 C7.923,9.878 8.089,9.353 8.249,8.845 C8.540,7.916 8.816,7.039 8.816,6.340 C8.816,5.143 8.067,4.340 6.953,4.340 C5.537,4.340 4.428,5.752 4.428,7.556 C4.428,8.441 4.667,9.102 4.775,9.356 C4.597,10.099 3.537,14.513 3.336,15.346 C3.220,15.832 2.519,19.670 3.678,19.976 C4.981,20.319 6.145,16.582 6.264,16.159 C6.360,15.816 6.696,14.517 6.902,13.719 C7.531,14.313 8.543,14.716 9.528,14.716 C11.386,14.716 13.056,13.894 14.231,12.403 C15.372,10.958 15.999,8.943 15.999,6.729 C15.999,4.999 15.243,3.293 13.925,2.050 Z" id="path-1" class="cls-2" fill-rule="evenodd"/>
</svg>
