<svg xmlns="http://www.w3.org/2000/svg" xmlns:xlink="http://www.w3.org/1999/xlink" preserveAspectRatio="xMidYMid" width="13" height="20" viewBox="0 0 13 20">
  <defs>
    <style>

      .cls-2 {
        fill: #000000;
        filter: url(#color-overlay-1);
      }
    </style>

    <filter id="color-overlay-1" filterUnits="userSpaceOnUse">
      <feFlood flood-color="#4da7ff" flood-opacity="1"/>
      <feComposite operator="in" in2="SourceGraphic"/>
      <feBlend mode="normal" in2="SourceGraphic" result="colorOverlay"/>
    </filter>
  </defs>
  <path d="M12.825,15.285 C12.717,15.229 12.586,15.234 12.483,15.300 C11.539,15.899 10.583,16.203 9.643,16.203 C9.131,16.203 8.690,16.092 8.293,15.861 C8.024,15.708 7.846,15.513 7.750,15.264 C7.676,15.072 7.587,14.561 7.587,13.216 C7.587,13.216 7.587,8.575 7.587,8.575 C7.587,8.575 12.003,8.575 12.003,8.575 C12.187,8.575 12.337,8.431 12.337,8.253 C12.337,8.253 12.337,5.214 12.337,5.214 C12.337,5.036 12.187,4.891 12.003,4.891 C12.003,4.891 7.587,4.891 7.587,4.891 C7.587,4.891 7.587,0.322 7.587,0.322 C7.587,0.144 7.438,-0.000 7.254,-0.000 C7.254,-0.000 4.405,-0.000 4.405,-0.000 C4.237,-0.000 4.095,0.121 4.074,0.283 C3.952,1.239 3.727,2.034 3.406,2.644 C3.090,3.249 2.663,3.774 2.137,4.206 C1.614,4.637 0.973,4.974 0.231,5.206 C0.093,5.249 -0.000,5.373 -0.000,5.513 C-0.000,5.513 -0.000,8.253 -0.000,8.253 C-0.000,8.431 0.149,8.575 0.334,8.575 C0.334,8.575 2.213,8.575 2.213,8.575 C2.213,8.575 2.213,15.041 2.213,15.041 C2.213,15.977 2.315,16.678 2.524,17.185 C2.735,17.698 3.113,18.184 3.649,18.631 C4.178,19.070 4.822,19.412 5.563,19.648 C6.295,19.881 7.146,20.000 8.093,20.000 C8.922,20.000 9.704,19.918 10.419,19.756 C11.135,19.594 11.939,19.311 12.809,18.913 C12.925,18.860 13.000,18.747 13.000,18.621 C13.000,18.621 13.000,15.569 13.000,15.569 C13.000,15.450 12.933,15.342 12.825,15.285 Z" id="path-1" class="cls-2" fill-rule="evenodd"/>
</svg>
