<svg xmlns="http://www.w3.org/2000/svg" xmlns:xlink="http://www.w3.org/1999/xlink" preserveAspectRatio="xMidYMid" width="20" height="16" viewBox="0 0 20 16">
  <defs>
    <style>

      .cls-2 {
        fill: #000000;
        filter: url(#color-overlay-1);
      }
    </style>

    <filter id="color-overlay-1" filterUnits="userSpaceOnUse">
      <feFlood flood-color="#ffffff" flood-opacity="1"/>
      <feComposite operator="in" in2="SourceGraphic"/>
      <feBlend mode="normal" in2="SourceGraphic" result="colorOverlay"/>
    </filter>
  </defs>
  <path d="M19.448,0.292 C18.655,0.754 17.776,1.092 16.841,1.274 C16.093,0.486 15.027,-0.004 13.847,-0.004 C11.580,-0.004 9.743,1.806 9.743,4.036 C9.743,4.351 9.780,4.660 9.850,4.956 C6.440,4.788 3.417,3.179 1.393,0.735 C1.040,1.330 0.838,2.025 0.838,2.766 C0.838,4.168 1.563,5.404 2.663,6.129 C1.990,6.106 1.358,5.924 0.805,5.620 C0.805,5.620 0.805,5.672 0.805,5.672 C0.805,7.629 2.219,9.261 4.095,9.635 C3.752,9.724 3.389,9.776 3.015,9.776 C2.750,9.776 2.493,9.749 2.242,9.702 C2.764,11.306 4.279,12.474 6.074,12.509 C4.670,13.591 2.900,14.236 0.979,14.236 C0.647,14.236 0.321,14.218 -0.001,14.182 C1.816,15.326 3.971,15.996 6.289,15.996 C13.836,15.996 17.963,9.841 17.963,4.501 C17.963,4.501 17.949,3.978 17.949,3.978 C18.754,3.411 19.451,2.698 20.000,1.890 C19.264,2.211 18.474,2.428 17.644,2.527 C18.491,2.026 19.141,1.233 19.448,0.292 Z" id="path-1" class="cls-2" fill-rule="evenodd"/>
</svg>
