<svg xmlns="http://www.w3.org/2000/svg" xmlns:xlink="http://www.w3.org/1999/xlink" preserveAspectRatio="xMidYMid" width="28" height="20" viewBox="0 0 28 20">
  <defs>
    <style>

      .cls-2 {
        fill: #000000;
        filter: url(#color-overlay-1);
      }
    </style>

    <filter id="color-overlay-1" filterUnits="userSpaceOnUse">
      <feFlood flood-color="#4da7ff" flood-opacity="1"/>
      <feComposite operator="in" in2="SourceGraphic"/>
      <feBlend mode="normal" in2="SourceGraphic" result="colorOverlay"/>
    </filter>
  </defs>
  <path d="M27.883,14.354 C27.883,14.354 27.869,14.593 27.869,14.593 C27.699,17.442 25.212,19.804 22.325,19.859 C22.325,19.859 18.440,19.934 18.440,19.934 C17.214,19.957 15.597,19.969 13.982,19.969 C12.382,19.969 10.783,19.957 9.569,19.934 C9.569,19.934 5.586,19.859 5.586,19.859 C2.695,19.803 0.228,17.435 0.088,14.581 C0.088,14.581 0.077,14.347 0.077,14.347 C-0.042,11.918 -0.042,7.968 0.077,5.538 C0.077,5.538 0.088,5.308 0.088,5.308 C0.229,2.451 2.696,0.092 5.590,0.050 C5.590,0.050 9.564,-0.009 9.564,-0.009 C12.001,-0.046 15.989,-0.043 18.428,-0.008 C18.428,-0.008 22.321,0.049 22.321,0.049 C25.210,0.092 27.699,2.446 27.869,5.296 C27.869,5.296 27.883,5.532 27.883,5.532 C28.028,7.964 28.028,11.922 27.883,14.354 ZM26.119,5.635 C26.119,5.635 26.105,5.399 26.105,5.399 C25.987,3.441 24.278,1.824 22.294,1.795 C22.294,1.795 18.402,1.738 18.402,1.738 C17.175,1.721 15.555,1.711 13.939,1.711 C12.361,1.711 10.787,1.720 9.591,1.738 C9.591,1.738 5.617,1.797 5.617,1.797 C3.638,1.826 1.950,3.439 1.854,5.392 C1.854,5.392 1.843,5.623 1.843,5.623 C1.726,8.005 1.726,11.881 1.843,14.262 C1.843,14.262 1.854,14.497 1.854,14.497 C1.950,16.452 3.640,18.073 5.621,18.111 C5.621,18.111 9.603,18.187 9.603,18.187 C12.025,18.234 15.985,18.233 18.406,18.187 C18.406,18.187 22.291,18.111 22.291,18.111 C24.243,18.075 25.989,16.416 26.105,14.490 C26.105,14.490 26.119,14.252 26.119,14.252 C26.261,11.875 26.261,8.010 26.119,5.635 ZM11.692,14.103 C11.563,14.170 11.421,14.203 11.280,14.203 C11.121,14.203 10.963,14.161 10.823,14.078 C10.558,13.919 10.396,13.636 10.396,13.330 C10.396,13.330 10.396,6.042 10.396,6.042 C10.396,5.736 10.558,5.453 10.823,5.294 C11.088,5.135 11.417,5.126 11.692,5.269 C11.692,5.269 18.685,8.913 18.685,8.913 C18.976,9.064 19.157,9.362 19.157,9.686 C19.157,10.010 18.975,10.308 18.685,10.459 C18.685,10.459 11.692,14.103 11.692,14.103 ZM12.163,7.489 C12.163,7.489 12.163,11.882 12.163,11.882 C12.163,11.882 16.378,9.685 16.378,9.685 C16.378,9.685 12.163,7.489 12.163,7.489 Z" id="path-1" class="cls-2" fill-rule="evenodd"/>
</svg>
